<svg width="27" height="27" viewBox="0 0 27 27" fill="none" xmlns="http://www.w3.org/2000/svg">
            <path fill-rule="evenodd" clip-rule="evenodd" d="M16 17C16 16.4477 16.4457 16 16.9955 16H17.0045C17.5543 16 18 16.4477 18 17C18 17.5523 17.5543 18 17.0045 18H16.9955C16.4457 18 16 17.5523 16 17Z" fill="white"></path>
            <path fill-rule="evenodd" clip-rule="evenodd" d="M9 10C9 9.44772 9.44571 9 9.99553 9H10.0045C10.5543 9 11 9.44772 11 10C11 10.5523 10.5543 11 10.0045 11H9.99553C9.44571 11 9 10.5523 9 10Z" fill="white"></path>
            <path fill-rule="evenodd" clip-rule="evenodd" d="M17.7071 8.29289C18.0976 8.68342 18.0976 9.31658 17.7071 9.70711L9.70711 17.7071C9.31658 18.0976 8.68342 18.0976 8.29289 17.7071C7.90237 17.3166 7.90237 16.6834 8.29289 16.2929L16.2929 8.29289C16.6834 7.90237 17.3166 7.90237 17.7071 8.29289Z" fill="white"></path>
            <path fill-rule="evenodd" clip-rule="evenodd" d="M14.2541 2.19487C13.8428 1.78351 13.1572 1.78351 12.7459 2.19487L10.8344 4.1064L10.178 3.45006L10.8344 4.1064C10.5577 4.38302 10.1983 4.59078 9.86529 4.72886C9.53275 4.86673 9.13352 4.97367 8.74638 4.97367H6.04261C5.45683 4.97367 4.97367 5.45683 4.97367 6.04258V8.74637C4.97367 9.13353 4.86671 9.53278 4.72884 9.86531C4.59074 10.1984 4.38298 10.5578 4.10637 10.8344L3.43944 10.1674L4.10637 10.8344L2.19488 12.7459L1.5296 12.0806L2.19487 12.7459C1.78351 13.1572 1.78351 13.8428 2.19487 14.2541L1.52795 14.9211L2.19488 14.2541L4.10081 16.1601C4.38312 16.4344 4.59156 16.7942 4.72883 17.1252C4.86821 17.4614 4.97367 17.8631 4.97367 18.2536V20.9573C4.97367 21.5431 5.45692 22.0263 6.04261 22.0263H8.74638C9.13354 22.0263 9.53279 22.1333 9.86532 22.2712C10.1984 22.4093 10.5578 22.617 10.8344 22.8936L12.7459 24.8051C13.1572 25.2165 13.8428 25.2165 14.2541 24.8051L16.1656 22.8936C16.4422 22.617 16.8016 22.4093 17.1347 22.2712C17.4672 22.1333 17.8664 22.0263 18.2536 22.0263H20.9574C21.5431 22.0263 22.0263 21.5431 22.0263 20.9573V18.2536C22.0263 17.8665 22.1333 17.4672 22.2712 17.1347C22.4092 16.8016 22.617 16.4422 22.8936 16.1656L24.8051 14.2541C25.2165 13.8428 25.2165 13.1572 24.8051 12.7459L22.8936 10.8344L23.5605 10.1674L22.8936 10.8344C22.617 10.5578 22.4092 10.1984 22.2712 9.86531C22.1333 9.53278 22.0263 9.13353 22.0263 8.74637V6.04258C22.0263 5.45683 21.5432 4.97367 20.9574 4.97367H18.2536C17.8665 4.97367 17.4672 4.86673 17.1347 4.72886C16.8017 4.59078 16.4422 4.38302 16.1656 4.1064L16.7828 3.48924L16.1656 4.1064L14.2541 2.19487ZM11.412 0.861019C12.56 -0.287006 14.4399 -0.287006 15.588 0.861019L15.588 0.861024L17.4995 2.77255L16.8326 3.43947L17.4995 2.77255C17.5498 2.82289 17.6746 2.91065 17.8571 2.98633C18.0402 3.06223 18.188 3.08732 18.2536 3.08732H20.9574C22.5849 3.08732 23.9127 4.415 23.9127 6.04258V8.74637C23.9127 8.81194 23.9378 8.95974 24.0137 9.14282C24.0894 9.32538 24.1771 9.45016 24.2275 9.50051L23.605 10.123L24.2275 9.50051L26.139 11.412C27.287 12.5601 27.287 14.44 26.139 15.588L24.2275 17.4995C24.1771 17.5498 24.0894 17.6746 24.0137 17.8572C23.9377 18.0403 23.9127 18.188 23.9127 18.2536V20.9573C23.9127 22.5847 22.585 23.9127 20.9574 23.9127H18.2536C18.188 23.9127 18.0402 23.9378 17.8572 24.0137C17.6746 24.0894 17.5498 24.1771 17.4995 24.2275L15.588 26.139C14.4399 27.287 12.56 27.287 11.412 26.139L9.50051 24.2275C9.45015 24.1771 9.32537 24.0894 9.14281 24.0137C8.95974 23.9378 8.81195 23.9127 8.74638 23.9127H6.04261C4.41497 23.9127 3.08732 22.5847 3.08732 20.9573V18.2536C3.08732 18.1789 3.06074 18.0272 2.98633 17.8477C2.91106 17.6662 2.82649 17.5516 2.78572 17.5124C2.78127 17.5082 2.77687 17.5038 2.77251 17.4995L0.86102 15.588C-0.287005 14.44 -0.287007 12.5601 0.861015 11.412C0.861017 11.412 0.861018 11.412 0.86102 11.412L2.77251 9.50052L2.77251 9.50051C2.82287 9.45016 2.91063 9.32538 2.98633 9.14282C3.06224 8.95974 3.08732 8.81194 3.08732 8.74637V6.04258C3.08732 4.415 4.41506 3.08732 6.04261 3.08732H8.74638C8.81197 3.08732 8.95978 3.06223 9.14284 2.98633C9.32539 2.91065 9.45015 2.8229 9.5005 2.77255C9.50051 2.77255 9.50051 2.77255 9.50051 2.77255L11.412 0.861023L11.412 0.861019Z" fill="white"></path>
          </svg>