<svg width="25" height="21" viewBox="0 0 25 21" fill="none" xmlns="http://www.w3.org/2000/svg">
            <path d="M13.125 -6.10352e-05H11.375V20.9999H13.125V-6.10352e-05Z" fill="white"></path>
            <path d="M7 2.62494V18.3749H1.75V2.62494H7ZM7 0.874939H1.75C1.28587 0.874939 0.840752 1.05931 0.512563 1.3875C0.184374 1.71569 0 2.16081 0 2.62494V18.3749C0 18.8391 0.184374 19.2842 0.512563 19.6124C0.840752 19.9406 1.28587 20.1249 1.75 20.1249H7C7.46413 20.1249 7.90925 19.9406 8.23744 19.6124C8.56562 19.2842 8.75 18.8391 8.75 18.3749V2.62494C8.75 2.16081 8.56562 1.71569 8.23744 1.3875C7.90925 1.05931 7.46413 0.874939 7 0.874939Z" fill="white"></path>
            <path d="M22.75 2.62494V18.3749H17.5V2.62494H22.75ZM22.75 0.874939H17.5C17.0359 0.874939 16.5908 1.05931 16.2626 1.3875C15.9344 1.71569 15.75 2.16081 15.75 2.62494V18.3749C15.75 18.8391 15.9344 19.2842 16.2626 19.6124C16.5908 19.9406 17.0359 20.1249 17.5 20.1249H22.75C23.2141 20.1249 23.6592 19.9406 23.9874 19.6124C24.3156 19.2842 24.5 18.8391 24.5 18.3749V2.62494C24.5 2.16081 24.3156 1.71569 23.9874 1.3875C23.6592 1.05931 23.2141 0.874939 22.75 0.874939Z" fill="white"></path>
          </svg>