<svg width="29" height="26" viewBox="0 0 29 26" fill="none" xmlns="http://www.w3.org/2000/svg">
            <path d="M12.9535 2.08549C6.89979 2.08549 1.99244 6.99285 1.99244 13.0466C1.99244 19.1003 6.89979 24.0077 12.9535 24.0077C17.2558 24.0077 20.9815 21.5289 22.7761 17.9174L24.5608 18.8046C22.4428 23.0669 18.0411 26 12.9534 26C5.79886 26 0 20.2009 0 13.0467C0 5.89242 5.79915 0.0932617 12.9534 0.0932617C18.0411 0.0932617 22.4428 3.02528 24.5608 7.28871L22.7761 8.17589C20.9813 4.56457 17.2556 2.08549 12.9535 2.08549Z" fill="white"></path>
            <path d="M13.9503 6.873V5.07471H11.9579V6.873C10.4245 7.30688 9.2998 8.71698 9.2998 10.3896C9.2998 12.4071 10.936 14.0433 12.9535 14.0433C13.8715 14.0433 14.6148 14.7866 14.6148 15.7035C14.6148 16.6215 13.8715 17.3648 12.9535 17.3648C12.0367 17.3648 11.2934 16.6215 11.2934 15.7035V15.1725H9.2998V15.7035C9.2998 17.3762 10.4245 18.7863 11.9579 19.2201V21.0184H13.9503V19.2201C15.4837 18.7862 16.6072 17.3761 16.6072 15.7035C16.6072 13.686 14.9722 12.0498 12.9535 12.0498C12.0367 12.0498 11.2934 11.3065 11.2934 10.3896C11.2934 9.47163 12.0367 8.72832 12.9535 8.72832C13.8715 8.72832 14.6148 9.47163 14.6148 10.3896V10.9205H16.6072V10.3896C16.6072 8.71689 15.4837 7.30677 13.9503 6.873Z" fill="white"></path>
            <path d="M25.1631 14.0433L23.503 15.7035L24.9119 17.1136L28.2733 13.751V12.3421L24.9119 8.98065L23.503 10.3896L25.1631 12.0498H18.269V14.0433L25.1631 14.0433Z" fill="white"></path>
          </svg>