<svg width="26" height="29" viewBox="0 0 26 29" fill="none" xmlns="http://www.w3.org/2000/svg">
            <path d="M2.75736 25.7141C4.51472 27.6667 7.34315 27.6667 13 27.6667C18.6568 27.6667 21.4853 27.6667 23.2427 25.7141C25 23.7615 25 20.6187 25 14.3334C25 8.04799 25 4.9053 23.2427 2.95269C21.4853 1.00006 18.6568 1.00006 13 1.00006C7.34315 1.00006 4.51472 1.00006 2.75736 2.95269C1 4.9053 1 8.04799 1 14.3334C1 20.6187 1 23.7615 2.75736 25.7141Z" stroke="white" stroke-width="2"></path>
            <path d="M6.3335 9.00004C6.3335 8.38005 6.3335 8.07007 6.40164 7.81573C6.58658 7.12555 7.12567 6.58645 7.81586 6.40152C8.07019 6.33337 8.38018 6.33337 9.00016 6.33337H17.0002C17.6202 6.33337 17.9302 6.33337 18.1844 6.40152C18.8747 6.58645 19.4138 7.12555 19.5987 7.81573C19.6668 8.07007 19.6668 8.38005 19.6668 9.00004C19.6668 9.62003 19.6668 9.93001 19.5987 10.1843C19.4138 10.8745 18.8747 11.4136 18.1844 11.5986C17.9302 11.6667 17.6202 11.6667 17.0002 11.6667H9.00016C8.38018 11.6667 8.07019 11.6667 7.81586 11.5986C7.12567 11.4136 6.58658 10.8745 6.40164 10.1843C6.3335 9.93001 6.3335 9.62003 6.3335 9.00004Z" stroke="white" stroke-width="2"></path>
            <path d="M7.66683 17C8.40321 17 9.00016 16.4031 9.00016 15.6667C9.00016 14.9303 8.40321 14.3334 7.66683 14.3334C6.93045 14.3334 6.3335 14.9303 6.3335 15.6667C6.3335 16.4031 6.93045 17 7.66683 17Z" fill="white"></path>
            <path d="M7.66683 22.3334C8.40321 22.3334 9.00016 21.7365 9.00016 21.0001C9.00016 20.2637 8.40321 19.6667 7.66683 19.6667C6.93045 19.6667 6.3335 20.2637 6.3335 21.0001C6.3335 21.7365 6.93045 22.3334 7.66683 22.3334Z" fill="white"></path>
            <path d="M12.9998 17C13.7362 17 14.3332 16.4031 14.3332 15.6667C14.3332 14.9303 13.7362 14.3334 12.9998 14.3334C12.2635 14.3334 11.6665 14.9303 11.6665 15.6667C11.6665 16.4031 12.2635 17 12.9998 17Z" fill="white"></path>
            <path d="M12.9998 22.3334C13.7362 22.3334 14.3332 21.7365 14.3332 21.0001C14.3332 20.2637 13.7362 19.6667 12.9998 19.6667C12.2635 19.6667 11.6665 20.2637 11.6665 21.0001C11.6665 21.7365 12.2635 22.3334 12.9998 22.3334Z" fill="white"></path>
            <path d="M18.3333 17C19.0697 17 19.6667 16.4031 19.6667 15.6667C19.6667 14.9303 19.0697 14.3334 18.3333 14.3334C17.597 14.3334 17 14.9303 17 15.6667C17 16.4031 17.597 17 18.3333 17Z" fill="white"></path>
            <path d="M18.3333 22.3334C19.0697 22.3334 19.6667 21.7365 19.6667 21.0001C19.6667 20.2637 19.0697 19.6667 18.3333 19.6667C17.597 19.6667 17 20.2637 17 21.0001C17 21.7365 17.597 22.3334 18.3333 22.3334Z" fill="white"></path>
          </svg>