<svg width="19px" height="19px" viewBox="0 0 19 19" version="1.1" xmlns="http://www.w3.org/2000/svg" xmlns:xlink="http://www.w3.org/1999/xlink" class="customer-icon"><defs><linearGradient x1="14.5524094%" y1="14.6909544%" x2="82.7722259%" y2="85.2519444%" id="linearGradient-1"><stop stop-color="#C444FB" offset="0%"></stop> <stop stop-color="#5B56D7" offset="100%"></stop></linearGradient></defs> <g id="Page-1" stroke="none" stroke-width="1" fill="none" fill-rule="evenodd"><g id="POS-Design---Dokan-P2" transform="translate(-759.000000, -27.000000)"><g id="Group" transform="translate(759.000000, 27.000000)"><circle id="Oval" fill="url(#linearGradient-1)" fill-rule="nonzero" cx="9.5" cy="9.5" r="9.5"></circle> <g id="flaticon1543304699-svg-2" transform="translate(9.500000, 9.500000) scale(-1, 1) translate(-9.500000, -9.500000) translate(6.000000, 5.000000)"><g id="flaticon1543304699-svg"><path d="M3.31578947,4.40159143 C4.27870463,4.40159143 5.0593751,3.41627143 5.0593751,2.20080857 C5.0593751,0.98532 4.80306952,0 3.31578947,0 C1.82850943,0 1.57215436,0.98532 1.57215436,2.20080857 C1.57215436,3.41627143 2.35282482,4.40159143 3.31578947,4.40159143 Z" id="Path" fill="#FFFFFF"></path> <path d="M0.0616980658,7.82884897 C0.0604730658,7.62453402 0.0592480658,7.77128348 0.0616980658,7.82884897 Z" id="Path" fill="#000000"></path> <path d="M6.64682715,7.85749962 C6.65070632,7.82585407 6.64815424,7.63794608 6.64682715,7.85749962 Z" id="Path" fill="#000000"></path> <path d="M6.60522584,7.67306571 C6.57293401,5.5557 6.30682954,4.95236571 4.27051414,4.57045714 C4.27051414,4.57045714 3.98387156,4.95002571 3.31576473,4.95002571 C2.64765789,4.95002571 2.36096583,4.57045714 2.36096583,4.57045714 C0.34687117,4.9482 0.0645836606,5.54258571 0.0274666143,7.60428 C0.0244230165,7.77263143 0.0230125687,7.78147714 0.0224681854,7.76193429 C0.0225919089,7.79855143 0.0227403771,7.86628286 0.0227403771,7.98438857 C0.0227403771,7.98438857 0.507538492,9 3.31576473,9 C6.12394148,9 6.60878908,7.98438857 6.60878908,7.98438857 C6.60878908,7.90850571 6.60883857,7.85574 6.6089128,7.81984286 C6.60836842,7.83192857 6.60727965,7.80850286 6.60522584,7.67306571 Z" id="Path" fill="#FFFFFF"></path></g></g></g></g></g></svg>