<svg width="22" height="22" viewBox="0 0 22 22" fill="none" xmlns="http://www.w3.org/2000/svg">
            <path d="M15.0957 1.29073C14.2713 0.465332 13.1529 0.00108801 11.9863 6.10352e-05H4.4C3.23305 6.10352e-05 2.11389 0.463631 1.28873 1.28879C0.46357 2.11395 0 3.23311 0 4.40006V17.6001C0 18.767 0.46357 19.8862 1.28873 20.7113C2.11389 21.5365 3.23305 22.0001 4.4 22.0001H17.6C18.767 22.0001 19.8861 21.5365 20.7113 20.7113C21.5364 19.8862 22 18.767 22 17.6001V10.0137C22 9.43549 21.886 8.86292 21.6645 8.32877C21.443 7.79461 21.1185 7.30935 20.7093 6.90073L15.0957 1.29073ZM13.2 3.54206L18.458 8.80006H14.6667C14.2777 8.80006 13.9046 8.64554 13.6296 8.37048C13.3545 8.09543 13.2 7.72238 13.2 7.33339V3.54206ZM19.0667 17.6001C19.0667 17.989 18.9121 18.3621 18.6371 18.6372C18.362 18.9122 17.989 19.0667 17.6 19.0667H4.4C4.01102 19.0667 3.63796 18.9122 3.36291 18.6372C3.08786 18.3621 2.93333 17.989 2.93333 17.6001V4.40006C2.93333 4.01108 3.08786 3.63802 3.36291 3.36297C3.63796 3.08792 4.01102 2.93339 4.4 2.93339H10.2667V7.33339C10.2667 8.50035 10.7302 9.6195 11.5554 10.4447C12.3806 11.2698 13.4997 11.7334 14.6667 11.7334H19.0667V17.6001Z" fill="white"></path>
          </svg>