<svg width="28" height="21" viewBox="0 0 28 21" fill="none" xmlns="http://www.w3.org/2000/svg">
            <path d="M23.8215 6.10352e-05H4.17846C3.06928 0.00298746 2.00649 0.457258 1.22319 1.26325C0.439882 2.06924 -3.66501e-06 3.16116 0 4.29954V16.7006C-3.66501e-06 17.839 0.439882 18.9309 1.22319 19.7369C2.00649 20.5429 3.06928 20.9971 4.17846 21.0001H23.8215C24.9307 20.9971 25.9935 20.5429 26.7768 19.7369C27.5601 18.9309 28 17.839 28 16.7006V4.29954C28 3.16116 27.5601 2.06924 26.7768 1.26325C25.9935 0.457258 24.9307 0.00298746 23.8215 6.10352e-05ZM4.17846 2.21059H23.8215C24.3595 2.21351 24.8744 2.43488 25.2538 2.82632C25.6332 3.21776 25.8462 3.74742 25.8462 4.29954V5.52638H2.15385V4.29954C2.15384 3.74742 2.3668 3.21776 2.74618 2.82632C3.12557 2.43488 3.64051 2.21351 4.17846 2.21059ZM23.8215 18.7895H4.17846C3.64051 18.7866 3.12557 18.5652 2.74618 18.1738C2.3668 17.7824 2.15384 17.2527 2.15385 16.7006V7.7369H25.8462V16.7006C25.8462 17.2527 25.6332 17.7824 25.2538 18.1738C24.8744 18.5652 24.3595 18.7866 23.8215 18.7895Z" fill="white"></path>
          </svg>