<svg width="27" height="27" viewBox="0 0 27 27" fill="none" xmlns="http://www.w3.org/2000/svg">
            <path d="M6.74993 13.4962C4.95974 13.4962 3.24287 14.2073 1.97701 15.4732C0.711153 16.739 1.21953e-06 18.4559 1.21953e-06 20.2461C-0.000913122 21.7677 0.51234 23.245 1.45649 24.4383C2.40064 25.6317 3.7203 26.4709 5.20135 26.82C6.68241 27.1691 8.23798 27.0076 9.61567 26.3615C10.9934 25.7155 12.1124 24.6229 12.7911 23.2611C12.9072 23.0276 13.0087 22.7871 13.0949 22.5411C13.3647 21.8061 13.5019 21.029 13.4999 20.2461C13.4999 18.4559 12.7887 16.739 11.5229 15.4732C10.257 14.2073 8.54013 13.4962 6.74993 13.4962ZM6.74993 25.3085C5.74867 25.3085 4.7699 25.0116 3.93739 24.4554C3.10487 23.8991 2.456 23.1084 2.07284 22.1834C1.68968 21.2584 1.58942 20.2405 1.78476 19.2585C1.98009 18.2764 2.46224 17.3744 3.17024 16.6664C3.87824 15.9584 4.78028 15.4762 5.7623 15.2809C6.74432 15.0856 7.76221 15.1858 8.68725 15.569C9.61229 15.9522 10.4029 16.601 10.9592 17.4335C11.5155 18.2661 11.8124 19.2448 11.8124 20.2461C11.8124 21.5887 11.279 22.8764 10.3296 23.8258C9.38023 24.7752 8.09258 25.3085 6.74993 25.3085Z" fill="white"></path>
            <path d="M8.99947 19.9648H7.03074V17.4336C7.03074 17.2098 6.94185 16.9952 6.78362 16.837C6.62539 16.6787 6.41078 16.5898 6.187 16.5898C5.96323 16.5898 5.74862 16.6787 5.59039 16.837C5.43216 16.9952 5.34326 17.2098 5.34326 17.4336V20.8086C5.34326 21.0323 5.43216 21.2469 5.59039 21.4052C5.74862 21.5634 5.96323 21.6523 6.187 21.6523H8.99947C9.22325 21.6523 9.43786 21.5634 9.59609 21.4052C9.75432 21.2469 9.84322 21.0323 9.84322 20.8086C9.84322 20.5848 9.75432 20.3702 9.59609 20.2119C9.43786 20.0537 9.22325 19.9648 8.99947 19.9648Z" fill="white"></path>
            <path d="M8.75783 5.62122H9.24158C9.65554 5.58533 10.0389 5.38845 10.3092 5.07289C10.5795 4.75733 10.7153 4.3483 10.6872 3.93374V1.68376C10.7153 1.26919 10.5795 0.860164 10.3092 0.544607C10.0389 0.22905 9.65554 0.0321638 9.24158 -0.00372314H8.75783C8.34387 0.0321638 7.96052 0.22905 7.69019 0.544607C7.41986 0.860164 7.28415 1.26919 7.31222 1.68376V3.93374C7.28415 4.3483 7.41986 4.75733 7.69019 5.07289C7.96052 5.38845 8.34387 5.58533 8.75783 5.62122Z" fill="white"></path>
            <path d="M20.0083 5.62122H20.4921C20.906 5.58533 21.2894 5.38845 21.5597 5.07289C21.83 4.75733 21.9658 4.3483 21.9377 3.93374V1.68376C21.9658 1.26919 21.83 0.860164 21.5597 0.544607C21.2894 0.22905 20.906 0.0321638 20.4921 -0.00372314H20.0083C19.5944 0.0321638 19.211 0.22905 18.9407 0.544607C18.6703 0.860164 18.5346 1.26919 18.5627 1.68376V3.93374C18.5346 4.3483 18.6703 4.75733 18.9407 5.07289C19.211 5.38845 19.5944 5.58533 20.0083 5.62122Z" fill="white"></path>
            <path d="M24.7498 2.24622H23.0623C22.9877 2.24622 22.9162 2.27585 22.8634 2.32859C22.8107 2.38134 22.781 2.45287 22.781 2.52746V3.9337C22.781 4.53043 22.544 5.10272 22.122 5.52467C21.7001 5.94663 21.1278 6.18368 20.5311 6.18368H19.9686C19.3718 6.18368 18.7995 5.94663 18.3776 5.52467C17.9556 5.10272 17.7186 4.53043 17.7186 3.9337V2.52746C17.7186 2.45287 17.689 2.38134 17.6362 2.32859C17.5835 2.27585 17.5119 2.24622 17.4373 2.24622H11.8124C11.7378 2.24622 11.6663 2.27585 11.6135 2.32859C11.5608 2.38134 11.5312 2.45287 11.5312 2.52746V3.9337C11.5312 4.53043 11.2941 5.10272 10.8722 5.52467C10.4502 5.94663 9.87791 6.18368 9.28118 6.18368H8.71868C8.12195 6.18368 7.54966 5.94663 7.12771 5.52467C6.70576 5.10272 6.46871 4.53043 6.46871 3.9337V2.52746C6.46871 2.45287 6.43908 2.38134 6.38633 2.32859C6.33359 2.27585 6.26205 2.24622 6.18746 2.24622H4.49998C3.90325 2.24622 3.33096 2.48327 2.909 2.90522C2.48705 3.32717 2.25 3.89946 2.25 4.49619V13.7886C2.60451 13.5359 2.98102 13.3157 3.37499 13.1305V9.27739C3.37499 9.2028 3.40462 9.13127 3.45736 9.07852C3.51011 9.02578 3.58164 8.99615 3.65624 8.99615H25.5935C25.6681 8.99615 25.7396 9.02578 25.7924 9.07852C25.8451 9.13127 25.8748 9.2028 25.8748 9.27739V21.371C25.8748 21.6694 25.7562 21.9555 25.5453 22.1665C25.3343 22.3775 25.0481 22.496 24.7498 22.496H14.2986C14.1837 22.8817 14.0389 23.2578 13.8655 23.621H24.7498C25.3465 23.621 25.9188 23.3839 26.3407 22.962C26.7627 22.54 26.9997 21.9678 26.9997 21.371V4.49619C26.9997 3.89946 26.7627 3.32717 26.3407 2.90522C25.9188 2.48327 25.3465 2.24622 24.7498 2.24622Z" fill="white"></path>
          </svg>