<svg width="36" height="21" viewBox="0 0 36 21" fill="none" xmlns="http://www.w3.org/2000/svg">
            <path fill-rule="evenodd" clip-rule="evenodd" d="M34.2557 5.13784H6.4001C6.14653 5.13784 5.91795 5.23983 5.75406 5.40372V5.40769C5.58739 5.57356 5.48421 5.80293 5.48421 6.05452V19.7528C5.48421 20.0063 5.5862 20.2353 5.75009 20.3996L5.75406 20.4032C5.91835 20.5674 6.14692 20.6698 6.4001 20.6698H34.2557C34.5093 20.6698 34.7379 20.5674 34.9021 20.4032L34.9061 20.3996C35.07 20.2353 35.172 20.0063 35.172 19.7528V6.05452C35.172 5.80333 35.0688 5.57356 34.9021 5.40769V5.40372C34.7379 5.23983 34.5093 5.13784 34.2557 5.13784ZM0.917078 6.10352e-05H28.7723C29.2763 6.10352e-05 29.689 0.411575 29.6886 0.916345V3.86203C29.6886 4.04655 29.5386 4.19656 29.3544 4.19656H27.9227C27.7381 4.19656 27.5873 4.04655 27.5873 3.86203V3.27114C26.8072 3.27114 26.175 2.60963 26.175 1.79334C21.7488 1.79295 7.94021 1.79295 3.51394 1.79334C3.51394 2.60963 2.88139 3.27114 2.10122 3.27114V12.261C2.88139 12.261 3.51394 12.9225 3.51394 13.7392H3.79689C3.98102 13.7392 4.13221 13.8892 4.13221 14.0733V15.1971C4.13221 15.3813 3.98102 15.5317 3.79689 15.5317H0.916681C0.40953 15.5309 0 15.1229 0 14.6154V0.916345C0 0.411575 0.412308 6.10352e-05 0.916681 6.10352e-05H0.917078ZM14.8443 3.07511C13.934 3.07511 13.0835 3.33464 12.3641 3.78425C12.2784 3.83742 12.2399 3.93822 12.2673 4.03504C12.2954 4.13227 12.3811 4.19656 12.4823 4.19656H17.2074C17.3078 4.19656 17.3939 4.13227 17.4213 4.03504C17.4495 3.93822 17.411 3.83742 17.3253 3.78425C16.6058 3.33503 15.7554 3.07511 14.8443 3.07511ZM20.3273 8.21329C22.9186 8.21329 25.0183 10.3129 25.0183 12.9038C25.0183 15.4944 22.9186 17.5948 20.3273 17.5948C17.7368 17.5948 15.6368 15.4944 15.6368 12.9038C15.6368 10.3133 17.7368 8.21329 20.3273 8.21329ZM18.5693 11.7606C18.5693 10.9764 19.0844 10.3824 19.8162 10.1657L19.813 9.57005C19.813 9.44545 19.9146 9.34386 20.0392 9.34386H20.6162C20.7404 9.34386 20.842 9.44545 20.842 9.57005L20.8384 10.1407C20.9781 10.176 21.1095 10.2228 21.2353 10.2935C21.6952 10.549 21.9654 10.9935 22.0531 11.505C22.0646 11.5721 22.0472 11.6371 22.0023 11.6891C21.9591 11.7411 21.898 11.7693 21.8305 11.7693H21.3007C21.2003 11.7693 21.1134 11.705 21.0845 11.609C20.8821 10.9403 19.6332 10.8693 19.6332 11.6915C19.6332 12.1399 20.2134 12.307 20.5555 12.4316C21.3682 12.7284 22.0865 13.0423 22.0865 14.0463C22.0865 14.8305 21.5722 15.4245 20.8392 15.6412L20.8424 16.2376C20.8424 16.3618 20.7408 16.4634 20.6166 16.4634H20.0396C19.915 16.4634 19.8134 16.3618 19.8134 16.2376L19.817 15.6674C19.6773 15.6321 19.5459 15.5844 19.4201 15.5138C18.9602 15.2582 18.6904 14.8138 18.6031 14.3019C18.5908 14.2348 18.6086 14.1701 18.6523 14.1181C18.6967 14.0662 18.7574 14.0372 18.8253 14.0372H19.3547C19.4551 14.0372 19.5428 14.1023 19.5713 14.1983C19.7729 14.867 21.0226 14.938 21.0226 14.1154C21.0226 13.6408 20.3555 13.4693 19.9987 13.338C19.2197 13.0519 18.5693 12.7126 18.5693 11.761V11.7606ZM12.9347 11.7245C13.5859 11.7245 14.1141 12.2526 14.1141 12.9038C14.1141 13.555 13.5859 14.0832 12.9347 14.0832C12.2835 14.0832 11.7553 13.555 11.7553 12.9038C11.7553 12.2526 12.2835 11.7245 12.9347 11.7245ZM27.7203 11.7245C28.3723 11.7245 28.8997 12.2526 28.8997 12.9038C28.8997 13.555 28.3719 14.0832 27.7203 14.0832C27.0691 14.0832 26.5417 13.555 26.5409 12.9038C26.5409 12.2526 27.0691 11.7245 27.7203 11.7245ZM8.99697 6.93073H31.658C31.658 7.74701 32.2906 8.40892 33.0712 8.40892V17.3984C32.2902 17.3984 31.658 18.0603 31.658 18.8769H8.99697C8.99697 18.0603 8.36442 17.3984 7.58464 17.3984V8.40892C8.36442 8.40892 8.99697 7.74701 8.99697 6.93073Z" fill="white"></path>
          </svg>